<svg width="100" xmlns="http://www.w3.org/2000/svg" xmlns:xlink="http://www.w3.org/1999/xlink" version="1.1" id="Layer_1" x="0px" y="0px" style="enable-background:new 0 0 1024 1024;" xml:space="preserve" viewBox="58.71 366.06 906.55 291.66">
<style type="text/css">
	.st0-topv{fill:#C22026;}
	.st1-topv{fill:#221F1F;}
	.st2-topv{fill:#C9C9C9;}
	.st3-topv{fill:#C32126;}
</style>
<g id="XMLID_466_">
	<path id="XMLID_496_" class="st0-topv" d="M534.37,443.89c3.66-8,6.4-13.18,8.23-15.56c4.09-5.47,9.04-8.22,14.83-8.22   c1.68,0,3.66,0.46,5.93,1.4l0,0.32c0,5.62-1.78,12.53-5.37,20.75c-1.76,3.96-3.48,5.94-5.16,5.94c-0.81-0.07-1.47-0.5-1.98-1.29   l-0.44,0c-2.2,0-4.83,3.53-7.9,10.59c-2.05,4.76-11.85,28.32-29.39,70.68c-0.95,1.95-2.82,2.92-5.6,2.92l-0.88,0   c-14.29-0.93-23.96-6.17-29.02-15.75c-2.57-4.82-4.08-12.13-4.52-21.93l0-1.3c0-4.68,0.94-12.17,2.84-22.48   c0.51-2.6,1.38-6.91,2.63-12.97c0.95-4.75,1.57-8,1.86-9.72c0.36-2.09,0.55-4.14,0.54-6.16c0-4.68-0.89-9.22-2.65-13.61   c-1.18-3.09-2.5-5.54-3.96-7.34l15.93-0.01c9.96-0.01,16.74,3.91,20.34,11.76c1.83,3.82,2.75,7.95,2.76,12.42   c0,1.87-0.18,3.82-0.54,5.84c-5.46,33.93-8.27,50.89-8.42,50.89l0,0.65c0,2.52,0.44,4.5,1.33,5.94c0.22,0.36,0.44,0.54,0.66,0.54   l0.11,0c0.22-0.07,0.51-0.47,0.88-1.19c0.07-0.21,1.46-3.5,4.17-9.84L534.37,443.89z"/>
	<path id="XMLID_493_" class="st0-topv" d="M649.67,491.55c-0.59,2.81-0.87,5.26-0.87,7.35c0,4.32,1.18,7.17,3.52,8.53   c0.8,0.51,1.72,0.76,2.75,0.75c0.81,0,1.65-0.14,2.53-0.43c1.98-0.65,3.92-1.91,5.82-3.78c3.37-3.39,6.51-8.58,9.44-15.56   l12.75-0.01c-4.24,13.04-9.03,22.95-14.37,29.72c-4.61,5.84-10.1,9.88-16.47,12.11c-2.13,0.72-4.69,1.08-7.69,1.09   c-2.42,0-5.09-0.21-8.02-0.64c-9.16-1.36-15.24-5.03-18.25-11c-5.27,7.57-13.25,11.35-23.94,11.36l-0.88,0   c-15.46-0.27-25.72-8.33-30.79-24.17c-2.2-6.91-3.31-14.4-3.31-22.47c-0.01-6.05,0.61-12.43,1.85-19.13   c3.79-20.96,11.47-34.69,23.04-41.18c4.83-2.74,10.77-4.11,17.8-4.12c1.61,0,3.22,0.07,4.83,0.21c5.2,0.43,10.73,3.05,16.6,7.87   l1.76,1.62l1.75-10.05l31.87-0.03l-6.01,37.5l-3.28,19.77L649.67,491.55z M620.76,470.29c0.95-6.63,1.42-11.06,1.42-13.29   c0-0.43-0.04-0.76-0.11-0.97c-0.37-3.74-1.58-6.62-3.63-8.64c-2.05-1.94-4.73-2.91-8.03-2.91c-0.66,0-1.32,0.04-1.98,0.11   c-5.2,0.58-9.56,4.65-13.07,12.22c-3.14,6.85-4.71,15.02-4.7,24.53c0,2.16,0.07,4.39,0.22,6.7c0.29,3.6,1.43,6.74,3.42,9.4   c1.76,2.37,3.96,4.06,6.59,5.07c1.46,0.5,2.86,0.75,4.18,0.75c1.1,0,2.19-0.18,3.29-0.54c2.56-0.79,4.5-2.45,5.82-4.97   C616.97,492.55,619.16,483.4,620.76,470.29"/>
	<path id="XMLID_490_" class="st0-topv" d="M769.99,489.94c-2.55,14.41-9.83,25.36-21.84,32.86c-9.01,5.63-18.6,8.44-28.78,8.45   c-1.25,0-2.53-0.03-3.85-0.1c-13.77-0.93-24.87-7.22-33.31-18.88c-8.87-12.16-13.32-28.65-13.34-49.47c0-2.3,0.04-4.68,0.11-7.13   c1.37-29.89,5.71-52.15,13.02-66.78c7.02-14.12,17.08-21.66,30.2-22.61c1.54-0.15,3-0.22,4.39-0.22   c16.11-0.01,26.49,7.04,31.11,21.15c1.69,5.18,2.54,10.66,2.54,16.42c0.01,9.07-2.11,18.94-6.35,29.61   c-9.07,22.7-21.21,42.62-36.43,59.78c2.42,8.21,7.92,13.14,16.49,14.79c2.05,0.36,4.07,0.54,6.04,0.53   c7.25-0.01,14.17-2.57,20.76-7.69c4.24-3.24,7.54-6.7,9.88-10.38L769.99,489.94z M727.31,427.42c7.6-15.7,11.41-28.06,11.4-37.06   c0-4.75-1.07-8.57-3.2-11.45c-0.96-1.37-2.53-2.05-4.73-2.05l-0.66,0c-2.71,0.07-5.49,1.09-8.35,3.03   c-7.54,5.05-12.81,13.95-15.8,26.7c-4.89,20.6-7.33,38.07-7.32,52.4l0,3.45c5.93-4.32,11.93-10.41,18.01-18.27   C721.56,437.54,725.11,431.96,727.31,427.42"/>
	<path id="XMLID_489_" class="st0-topv" d="M847.29,420.3c-0.07,0.43-4.41,26.29-13.01,77.58l0,0.43c0,5.48,1.58,8.64,4.74,9.51   c0.51,0.14,1.06,0.21,1.65,0.21c2.49,0,5.16-1.41,8.02-4.22c3.44-3.32,6.59-8.47,9.44-15.46l12.64-0.12   c-4.16,13.04-8.92,22.91-14.26,29.61c-4.61,5.84-10.06,9.84-16.36,12c-2.27,0.8-5.46,1.19-9.56,1.2l-1.87,0l0,0.11l-0.22-0.11   c-8.28-0.28-14.4-2.37-18.35-6.25c-2.42-2.59-4.11-6.15-5.06-10.69c-11.64,11.39-21.78,17.09-30.43,17.1   c-0.51,0-1.02-0.03-1.54-0.11c-9.3-0.71-14.87-5.57-16.71-14.57c-0.59-2.59-0.88-5.65-0.89-9.19c-0.01-8.28,1.48-19.16,4.48-32.63   c2.62-13.47,4.3-22.55,5.03-27.23c0.37-2.16,0.55-4.28,0.54-6.37c0-4.54-0.85-8.97-2.54-13.29c-1.25-3.09-2.57-5.55-3.96-7.34   l11.87-0.01c9.89-0.01,16.56,3.88,20.01,11.65c1.76,3.89,2.64,8.5,2.65,13.83c0,1.44-0.07,2.92-0.22,4.43   c-0.51,5.9-1.35,12.21-2.51,18.91c-1.46,8.43-2.33,13.47-2.62,15.13c-1.68,8.64-2.52,14.62-2.51,17.94l0,0.43   c0.15,3.46,1.36,5.44,3.63,5.94c0.51,0.14,1.02,0.22,1.53,0.22c3.3,0,7.73-2.03,13.29-6.06c0.07-1.66,0.22-3.2,0.44-4.65   c0.51-3.38,2.11-14.12,4.81-32.2c0.14-3.31,2.51-18.55,7.1-45.7L847.29,420.3z"/>
	<path id="XMLID_486_" class="st0-topv" d="M910.14,420.68c6.74-0.01,12.09,0.89,16.05,2.69c3.66,1.66,6.81,3.63,9.46,5.93   c5.28,4.53,7.92,10.47,7.93,17.82c0,1.01-0.04,2.02-0.11,3.02c-1.6,18.51-18.91,32.86-51.94,43.04   c4.25,8.71,11.88,13.56,22.87,14.56c1.54,0.14,3.04,0.21,4.51,0.21c9.38-0.01,17.69-3,24.93-8.99c4.18-3.38,7.25-6.92,9.22-10.59   l12.2-0.12c-4.9,13.62-13.05,24.32-24.47,32.11c-10.62,7.14-22.19,10.72-34.71,10.73l-0.33,0c-5.57-0.07-11.25-1.25-17.04-3.55   c-6.52-2.66-12.13-6.36-16.82-11.11c-9.09-9.14-13.64-20.66-13.65-34.56c0-4.25,0.43-8.75,1.3-13.5   c3.79-20.53,13.01-34.62,27.66-42.26c6.81-3.61,13.29-5.41,19.44-5.42L910.14,420.68z M886.68,481.41   c8.57-7.35,16.43-16.25,23.6-26.71c4.68-6.92,7.53-11.82,8.56-14.7c0.44-1.3,0.66-2.45,0.65-3.46c0-2.45-1.54-3.89-4.62-4.32   c-0.44-0.07-0.92-0.11-1.43-0.11c-1.61,0-3.59,0.29-5.93,0.87c-7.1,1.74-12.63,6.53-16.58,14.38c-3.44,6.77-5.15,14.63-5.15,23.55   c0,1.15,0.04,2.34,0.11,3.57C886.05,476.95,886.31,479.25,886.68,481.41"/>
	<path id="XMLID_485_" class="st1-topv" d="M762.33,609.93c-0.12-0.79-0.21-1.57-0.3-2.33c-0.09-0.76-0.13-1.54-0.13-2.34   c0-0.79,0.04-1.6,0.13-2.42c0.08-0.82,0.18-1.63,0.3-2.42c0.79-0.12,1.57-0.2,2.33-0.26c0.76-0.06,1.54-0.09,2.33-0.09   c0.79,0,1.58,0.03,2.38,0.08c0.79,0.05,1.58,0.14,2.38,0.25c0.11,0.79,0.21,1.58,0.3,2.38c0.09,0.79,0.13,1.58,0.13,2.38   c0,0.79-0.04,1.58-0.12,2.38c-0.08,0.79-0.18,1.59-0.29,2.37c-0.79,0.12-1.57,0.2-2.33,0.26c-0.77,0.06-1.54,0.09-2.33,0.09   c-0.79,0-1.58-0.03-2.38-0.08C763.91,610.13,763.12,610.04,762.33,609.93"/>
	<path id="XMLID_484_" class="st1-topv" d="M815.2,602.33c0.45,0.79,0.85,1.78,1.19,2.97c0.34,1.19,0.54,2.41,0.6,3.65   c-3.34,1.3-7.16,1.96-11.46,1.96c-7.24,0.01-12.7-2.04-16.39-6.14c-3.68-4.1-5.52-9.63-5.53-16.59c0-3.23,0.45-6.22,1.35-9   c0.9-2.77,2.24-5.18,4.03-7.22c1.78-2.04,4-3.65,6.66-4.84c2.66-1.19,5.74-1.79,9.25-1.79c2.38,0,4.47,0.14,6.28,0.42   c1.81,0.28,3.54,0.73,5.18,1.36c0,0.96-0.12,2.08-0.38,3.35c-0.26,1.27-0.61,2.39-1.06,3.35c-2.77-0.96-5.94-1.44-9.51-1.43   c-4.36,0-7.61,1.45-9.76,4.34c-2.15,2.89-3.22,6.71-3.22,11.46c0,5.43,1.23,9.41,3.66,11.92c2.43,2.52,5.78,3.77,10.02,3.77   c1.7,0,3.27-0.12,4.71-0.34C812.27,603.3,813.73,602.9,815.2,602.33"/>
	<path id="XMLID_481_" class="st1-topv" d="M845.25,610.88c-3.4,0-6.37-0.58-8.91-1.73c-2.55-1.16-4.67-2.76-6.37-4.79   c-1.7-2.03-2.96-4.44-3.78-7.21c-0.82-2.77-1.24-5.77-1.24-9c0-3.23,0.41-6.22,1.22-9c0.82-2.77,2.07-5.18,3.77-7.22   c1.69-2.04,3.82-3.65,6.36-4.84c2.54-1.19,5.51-1.79,8.91-1.79c3.4,0,6.37,0.59,8.91,1.78c2.55,1.19,4.67,2.8,6.37,4.83   c1.7,2.04,2.96,4.44,3.78,7.21c0.82,2.77,1.23,5.77,1.24,9c0,3.23-0.41,6.23-1.22,9c-0.82,2.77-2.08,5.18-3.77,7.22   c-1.69,2.04-3.82,3.64-6.36,4.8C851.62,610.29,848.65,610.88,845.25,610.88 M845.25,604.18c3.91,0,6.79-1.42,8.65-4.25   c1.87-2.83,2.8-6.76,2.79-11.8c0-5.03-0.94-8.95-2.81-11.75c-1.87-2.8-4.76-4.2-8.66-4.2c-3.9,0-6.78,1.41-8.61,4.21   c-1.84,2.8-2.75,6.72-2.75,11.76c0,5.04,0.93,8.97,2.77,11.8C838.47,602.77,841.34,604.18,845.25,604.18"/>
	<path id="XMLID_480_" class="st1-topv" d="M878.65,566.29c0.62-0.12,1.23-0.2,1.83-0.26c0.59-0.05,1.2-0.09,1.82-0.09   c0.62,0,1.2,0.03,1.74,0.08c0.54,0.06,1.12,0.14,1.74,0.25c0.17,0.85,0.34,1.96,0.51,3.35c0.17,1.39,0.26,2.56,0.26,3.52   c0.51-1.02,1.14-1.99,1.91-2.93c0.76-0.93,1.67-1.77,2.71-2.51c1.05-0.74,2.25-1.33,3.61-1.79c1.36-0.45,2.86-0.68,4.5-0.68   c3.4,0,6.01,0.69,7.85,2.07c1.84,1.39,3.24,3.32,4.2,5.81c0.57-0.96,1.26-1.92,2.08-2.89c0.82-0.96,1.74-1.81,2.76-2.55   c1.02-0.74,2.18-1.33,3.48-1.79c1.3-0.45,2.77-0.68,4.42-0.68c5.03,0,8.7,1.41,10.99,4.24c2.29,2.83,3.44,7.01,3.45,12.56   l0.02,27.76c-0.62,0.11-1.33,0.2-2.12,0.26c-0.79,0.06-1.5,0.09-2.12,0.09c-0.62,0-1.31-0.03-2.08-0.08   c-0.77-0.05-1.46-0.14-2.08-0.25l-0.02-25.29c0-3.9-0.6-6.83-1.79-8.78c-1.19-1.95-3.14-2.92-5.86-2.92c-2.89,0-5.22,1.05-7,3.15   c-1.78,2.09-2.67,5.18-2.67,9.25l0.02,24.62c-0.62,0.11-1.31,0.2-2.08,0.26c-0.76,0.06-1.46,0.09-2.08,0.09   c-0.62,0-1.32-0.03-2.08-0.08c-0.76-0.05-1.46-0.14-2.08-0.25l-0.02-25.89c0-3.79-0.57-6.63-1.71-8.53   c-1.13-1.9-2.94-2.84-5.43-2.84c-1.42,0-2.74,0.31-3.99,0.94c-1.25,0.63-2.34,1.56-3.27,2.8c-0.93,1.25-1.67,2.82-2.2,4.71   c-0.54,1.9-0.8,4.09-0.8,6.58l0.02,22.24c-0.62,0.11-1.31,0.2-2.08,0.26c-0.76,0.06-1.46,0.09-2.08,0.09   c-0.62,0-1.33-0.03-2.12-0.08c-0.79-0.05-1.5-0.14-2.12-0.25L878.65,566.29z"/>
	<path id="XMLID_477_" class="st1-topv" d="M281.45,534.24c-9.34,0.01-17.45-1.48-24.34-4.46c-6.89-2.98-12.6-7.12-17.13-12.44   c-4.53-5.31-7.94-11.54-10.24-18.67c-2.31-7.14-3.46-14.86-3.47-23.16c-0.01-8.31,1.14-16.1,3.43-23.39   c2.29-7.29,5.69-13.59,10.21-18.91c4.51-5.32,10.22-9.51,17.11-12.58c6.89-3.06,15-4.6,24.34-4.61c9.34-0.01,17.49,1.52,24.46,4.57   c6.97,3.05,12.75,7.24,17.35,12.55c4.6,5.32,8.01,11.61,10.24,18.9c2.23,7.28,3.35,15.07,3.35,23.38c0.01,8.3-1.1,16.03-3.32,23.17   c-2.22,7.14-5.62,13.37-10.21,18.69c-4.59,5.33-10.37,9.48-17.33,12.47C298.94,532.72,290.79,534.23,281.45,534.24 M281.43,510.63   c8.3-0.01,14.26-3.04,17.89-9.08c3.63-6.05,5.43-14.76,5.42-26.12c-0.01-11.36-1.83-20.07-5.47-26.11   c-3.64-6.04-9.61-9.06-17.9-9.05c-8.15,0.01-14.04,3.04-17.66,9.08c-3.63,6.05-5.44,14.76-5.43,26.12   c0.01,11.36,1.83,20.07,5.47,26.11C267.39,507.62,273.28,510.64,281.43,510.63"/>
	<path id="XMLID_474_" class="st1-topv" d="M348.49,418.36c2.07-0.44,4.11-0.73,6.11-0.88c2-0.15,4.26-0.22,6.78-0.22   c4.15,0,8.37,0.43,12.67,1.3c0.44,0.73,0.85,1.78,1.22,3.17c0.37,1.39,0.74,2.88,1.12,4.48c0.37,1.6,0.67,3.17,0.89,4.7   c0.23,1.53,0.41,2.81,0.56,3.82c1.33-2.33,2.96-4.63,4.88-6.89c1.92-2.26,4.26-4.27,7-6.02c2.74-1.75,5.81-3.17,9.22-4.27   c3.41-1.1,7.19-1.64,11.34-1.65c6.37-0.01,12.34,1.16,17.9,3.48c5.56,2.33,10.42,5.86,14.57,10.59c4.15,4.73,7.38,10.67,9.69,17.8   c2.3,7.14,3.46,15.59,3.47,25.35c0.01,9.47-1.4,17.96-4.2,25.46c-2.81,7.51-6.88,13.88-12.21,19.13   c-5.33,5.25-11.85,9.3-19.55,12.14c-7.71,2.85-16.45,4.28-26.23,4.28c-2.52,0-5-0.11-7.45-0.32c-2.45-0.22-4.49-0.47-6.11-0.76   l0.04,50.26c-2.82,0.44-5.52,0.73-8.12,0.88c-2.59,0.15-5.15,0.22-7.67,0.22c-2.52,0-5.08-0.07-7.67-0.21   c-2.59-0.15-5.3-0.43-8.11-0.87L348.49,418.36z M380.13,507.49c4,1.16,8.59,1.74,13.78,1.74c9.19-0.01,16.23-2.92,21.12-8.76   c4.88-5.83,7.32-14.65,7.31-26.45c0-4.51-0.38-8.7-1.12-12.56c-0.75-3.86-2.01-7.17-3.79-9.94c-1.78-2.76-4.05-4.95-6.79-6.55   c-2.75-1.6-6.12-2.4-10.12-2.4c-3.71,0-6.86,0.7-9.44,2.08c-2.6,1.39-4.71,3.28-6.33,5.69c-1.63,2.4-2.81,5.21-3.55,8.42   c-0.74,3.21-1.1,6.63-1.1,10.27L380.13,507.49z"/>
	<path id="XMLID_473_" class="st0-topv" d="M743.82,615.03c-0.19-0.39-0.43-0.76-0.71-1.1c-0.28-0.33-0.63-0.91-0.99-1.17l-22.7-26.52   L674,624.72l21.78,26.15c0.22,0.57,1.17,1.38,1.55,1.84c0.39,0.45,0.85,0.84,1.37,1.15l0.05,0.05l0.02-0.01   c5.33,7.14,24.34,3.78,35.84-5.95c11.5-9.73,14.25-25.99,9.45-32.4"/>
	<path id="XMLID_472_" class="st2-topv" d="M671.76,571.79c-9.73-8.65-21.31-22.58-19.41-36.53c1.33-9.77,7.76-17.67,5.19-27.88   c-0.56-2.21-3.97-1.27-3.41,0.94c2.89,11.45-7.06,21.27-5.48,32.73c1.79,12.94,11.12,24.8,20.61,33.23   C670.96,575.81,673.47,573.31,671.76,571.79"/>
	<path id="XMLID_471_" class="st0-topv" d="M709.71,574.42c-0.22-0.57-1.16-1.39-1.54-1.85c-0.38-0.46-0.84-0.84-1.36-1.16l-0.04-0.05   l-0.02,0.02c-5.03-2.98-21.37-3.84-32.97,3.54l5.01,5.94c2.08-1.06,4.7-0.55,6.21,1.35l5.13,6.43c1.4,1.75,1.41,4.15,0.22,5.92   l6.85,8.12l21.4-17.8L709.71,574.42z"/>
	<path id="XMLID_470_" class="st0-topv" d="M688.17,596.37c-2.03,0.87-4.47,0.35-5.91-1.46l-5.13-6.43c-1.33-1.67-1.41-3.92-0.4-5.66   l-5.27-6.25c-0.2,0.15-0.41,0.29-0.6,0.45c-11.58,9.64-11.92,26.35-9.73,32.32l-0.12,0.1l0.34,0.41c0.19,0.4,0.42,0.76,0.71,1.1   c0.28,0.33,0.62,0.92,0.98,1.18l9.8,10.82l22.19-18.46L688.17,596.37z"/>
	<path id="XMLID_469_" class="st0-topv" d="M688.62,588.95c1.44,1.81,1.33,4.3-0.24,5.57c-1.59,1.26-4.04,0.81-5.48-1l-4.27-5.37   c-1.44-1.8-1.33-4.29,0.25-5.55c1.57-1.26,4.02-0.81,5.46,1L688.62,588.95z"/>
	<path id="XMLID_468_" class="st3-topv" d="M140.05,385.97c0.06,0.07-14.93,0.01-21.36,0.02c-32.42,0.03-60.01,26.52-59.98,60.31   c0.01,11.61,3.31,22.43,8.94,31.68L140.05,385.97z"/>
	<path id="XMLID_467_" class="st1-topv" d="M216.64,515.38c-0.45-2.98-1.19-5.86-2.23-8.63c-1.63,0.29-3.52,0.62-5.67,0.99   c-2.15,0.37-4.33,0.55-6.56,0.55c-2.82,0-5.26-0.29-7.34-0.87c-2.08-0.58-3.82-1.67-5.23-3.27c-1.41-1.6-2.49-3.78-3.23-6.55   c-0.74-2.77-1.12-6.41-1.12-10.92l-0.04-44.36l26.9-0.02c0.44-2.33,0.74-4.44,0.88-6.34c0.15-1.89,0.22-3.86,0.22-5.9   c0-1.89-0.08-3.71-0.23-5.46c-0.15-1.75-0.45-3.71-0.89-5.9l-26.9,0.02l-0.03-33l-5.11,0l-25.67,0.24l-0.17,32.23l-26.68,0.02   c-0.44,2.33-0.74,4.44-0.88,6.34c-0.15,1.89-0.22,3.86-0.22,5.9c0,1.89,0.08,3.71,0.23,5.46c0.15,1.75,0.45,3.71,0.89,5.9   l26.54-0.02l0,0.54l0.04,51.14c0.01,13.99,3.58,24.07,10.7,30.26c7.12,6.19,17.42,9.27,30.91,9.26c7.26-0.01,14.3-0.81,21.12-2.42   c0.15-1.02,0.26-2.08,0.33-3.17c0.07-1.09,0.11-2.44,0.11-4.04C217.31,521.03,217.09,518.37,216.64,515.38"/>
</g>
</svg>